PathFileType	4	(X/Y/Z)	C:/Users/opensim2020/Desktop/walking_exp_matlab/subject02_walking12_straight_02.trc	
DataRate	CameraRate	NumFrames	NumMarkers	Units	OrigDataRate	OrigDataStartFrame	OrigNumFrames	
100.00	100.00	4	42	mm	100.00	1034	149	
Frame#	Time	LFHD			RFHD			LBHD			RBHD			C7			T10			CLAV			STRN			RBAK			LSHO			LUPA			LELB			LFRM			LWRA			LWRB			LFIN			RSHO			RUPA			RELB			RFRM			RWRA			RWRB			RFIN			LASI			RASI			LPSI			RPSI			LTHI			LKNE			LTIB			LANK			LHEE			LTOE			RTHI			RKNE			RTIB			RANK			RHEE			RTOE			*39			*40			*41			
		X1	Y1	Z1	X2	Y2	Z2	X3	Y3	Z3	X4	Y4	Z4	X5	Y5	Z5	X6	Y6	Z6	X7	Y7	Z7	X8	Y8	Z8	X9	Y9	Z9	X10	Y10	Z10	X11	Y11	Z11	X12	Y12	Z12	X13	Y13	Z13	X14	Y14	Z14	X15	Y15	Z15	X16	Y16	Z16	X17	Y17	Z17	X18	Y18	Z18	X19	Y19	Z19	X20	Y20	Z20	X21	Y21	Z21	X22	Y22	Z22	X23	Y23	Z23	X24	Y24	Z24	X25	Y25	Z25	X26	Y26	Z26	X27	Y27	Z27	X28	Y28	Z28	X29	Y29	Z29	X30	Y30	Z30	X31	Y31	Z31	X32	Y32	Z32	X33	Y33	Z33	X34	Y34	Z34	X35	Y35	Z35	X36	Y36	Z36	X37	Y37	Z37	X38	Y38	Z38	X39	Y39	Z39	X40	Y40	Z40	X41	Y41	Z41	X42	Y42	Z42	

19	0.180	1499.58752	630.25879	1716.23901	1358.60815	647.55463	1692.88269	1526.41003	750.90961	1630.14648	1388.28259	780.20245	1605.48828	1456.32251	809.31128	1497.79858	1446.47461	878.80457	1226.17651	1461.87756	673.19855	1421.16199	1455.90686	634.33856	1245.39502	1397.36804	880.02991	1327.29688	1627.93445	733.93799	1474.84229	1756.62695	705.75159	1314.18201	1821.55432	656.29602	1197.34241	1864.39355	559.40063	1113.24841	1864.10474	429.75867	1069.62817	1890.85559	467.83972	1037.79077	1916.21741	411.66867	1017.76978	1267.28418	743.10590	1455.44739	1191.06921	812.16754	1274.39380	1179.59729	829.58142	1126.95984	1167.30078	824.32599	1005.24030	1192.95300	800.23547	873.57269	1161.81665	847.84302	876.72949	1162.87512	822.22253	808.51996	1591.82349	675.94281	951.64581	1336.25098	651.92706	939.69373	1486.33044	874.40112	1009.46436	1372.29785	867.94269	1005.27069	1634.87964	827.51129	664.37823	1604.58801	912.65094	477.84991	1601.62671	1028.81653	320.02649	1570.79199	1094.04822	102.54366	1517.83508	1132.31665	83.59354	1594.05981	950.32562	36.69864	1264.38635	672.21356	641.26221	1317.05115	582.72797	457.49866	1314.05212	539.89459	276.33997	1351.32031	465.89432	96.71576	1411.47839	468.34610	36.01592	1332.53979	304.85379	103.77621	1422.16235	748.47272	1769.03210	-3357.11328	2845.96631	1034.38391			 
20	0.190	1498.40491	617.40472	1714.63184	1357.42322	634.89453	1691.23743	1525.53467	738.24353	1628.71716	1387.40344	767.64050	1604.03186	1455.64563	796.58081	1496.06165	1446.41199	865.49567	1224.31982	1461.11462	660.52582	1419.61609	1454.91968	620.84662	1243.94836	1396.89856	866.95221	1325.23303	1627.35449	721.04669	1473.46069	1756.79858	694.07837	1313.09619	1822.65308	644.42212	1196.67908	1864.59143	545.61591	1114.07007	1863.23877	415.16110	1073.19104	1890.27539	452.22415	1040.45496	1915.22693	395.40176	1021.85437	1266.54688	731.04138	1453.44043	1190.70825	800.38611	1272.57043	1179.69421	818.49573	1125.09851	1167.74182	814.94073	1003.51270	1193.02600	791.21558	871.50647	1161.98218	839.05072	875.26111	1162.85962	813.86859	806.96155	1592.21301	662.58685	949.76898	1336.42834	637.70984	937.87567	1485.96875	860.66675	1007.72247	1371.83411	854.02832	1003.69031	1635.58105	815.92285	663.76685	1605.72461	902.02667	477.73111	1602.97119	1021.56964	322.47467	1572.31799	1091.88354	106.48462	1519.56787	1130.70398	89.10223	1594.38989	950.13959	36.67329	1264.12134	654.04901	641.69275	1317.24939	564.87134	457.66046	1314.42651	525.01355	275.64404	1352.51904	455.54599	94.53127	1412.57117	460.24405	33.90419	1336.15601	294.55075	97.93529	1420.97266	735.67773	1767.44067						 
21	0.200	1497.46021	604.85663	1713.42761	1356.48950	622.29089	1690.01697	1524.42920	725.60834	1627.44836	1386.32544	754.94086	1602.70032	1454.78564	783.75922	1494.55286	1446.20886	852.05756	1222.63660	1459.78455	647.11346	1418.25903	1454.14929	607.58966	1242.91724	1396.74976	854.07855	1323.57349	1626.33643	707.78839	1471.96838	1756.55396	682.50763	1311.90918	1822.87109	632.68384	1195.48157	1864.41663	532.42908	1114.59326	1861.92310	401.27432	1076.20374	1889.36841	437.48944	1042.70447	1913.71948	380.01349	1025.37915	1265.46802	718.50323	1451.65662	1190.05664	788.37762	1270.82495	1179.75232	806.98334	1123.53088	1167.66223	804.02753	1001.97229	1192.79041	782.06635	869.58826	1161.83374	829.70056	873.91455	1162.52600	805.29944	805.30652	1592.53613	648.83545	948.13422	1336.25854	622.91162	936.49274	1485.57019	846.46478	1006.02911	1371.41736	839.93329	1002.24097	1636.21875	803.55292	663.06335	1606.83728	890.61066	477.66165	1604.54578	1013.45264	325.17566	1574.29114	1089.45276	111.20474	1521.54089	1128.59412	95.21526	1594.78540	949.95074	36.67379	1263.48303	633.57733	642.95874	1317.15454	547.11450	457.51312	1314.85022	511.37189	274.51645	1353.67102	447.36441	91.76900	1413.63953	454.34866	31.17548	1339.02625	286.83536	91.67959	1420.07593	723.09723	1766.31116	-3356.98242	2845.90454	1034.22705			 
22	0.210	1495.98816	592.03278	1712.08850	1355.06567	609.50812	1688.70300	1523.16846	712.93958	1626.26660	1385.00146	742.28833	1601.58411	1453.81238	770.88757	1493.13757	1445.79883	838.50116	1221.02991	1458.95764	634.19080	1417.35962	1452.85571	593.91876	1241.82043	1396.07727	840.90265	1321.79980	1625.46338	694.78925	1470.86499	1755.94885	671.08954	1310.73535	1823.26013	621.64307	1194.54382	1863.82715	519.85339	1114.77844	1860.09351	388.28638	1078.51086	1887.92139	423.54532	1044.40332	1911.67822	365.42322	1028.23816	1264.49792	706.25415	1450.18311	1189.59131	776.44727	1269.39551	1179.71399	795.16730	1122.04944	1167.57056	793.14874	1000.62054	1192.87720	772.52673	868.02124	1161.58984	819.86548	872.73865	1162.30493	796.01892	803.91956	1592.72668	634.50378	946.65259	1335.75537	607.67896	935.75879	1485.00024	831.82214	1004.27209	1371.16309	825.58337	1000.81024	1636.90869	790.20807	662.26855	1608.03760	878.38245	477.62146	1606.11621	1004.62262	328.12668	1575.99902	1086.33069	116.10246	1523.45776	1125.87134	101.98600	1595.17993	949.71783	36.59850	1262.68066	611.92517	644.22766	1316.81421	529.94550	457.14063	1315.07080	499.24445	272.85599	1354.93994	441.04446	88.67397	1414.04553	450.97098	29.58157	1341.27930	280.94846	84.78383	1418.81592	710.34198	1765.12158	-3357.03613	2845.94604	1034.17590			 
